<svg width="421" height="339" viewBox="0 0 421 339" fill="none" xmlns="http://www.w3.org/2000/svg">
<path d="M335.966 172.559V240.058H205.241V221.334L254.129 172.559H335.966Z" fill="url(#paint0_linear_9_2)"/>
<path d="M110.362 315.984L179.271 247.227V338.254H110.362V315.984Z" fill="url(#paint1_linear_9_2)"/>
<path d="M358.58 60.4053L357.284 61.3587L357.208 61.435L327.196 83.4768L266.638 127.942H223.202C216.834 127.942 211.228 129.01 206.156 131.069C201.046 133.128 196.47 136.217 192.199 140.45L192.123 140.564L192.008 140.641C188.004 144.454 185.068 148.458 182.97 152.768C180.949 157.039 179.691 161.615 179.309 166.725V192.084L110.362 242.689V170.5C110.362 155.437 113.108 141.289 118.637 128.209C124.167 115.129 132.48 103.269 143.348 92.6291C154.179 82.0277 166.42 73.905 179.767 68.4899C193.152 63.1129 207.681 60.4435 223.126 60.4435H358.542L358.58 60.4053Z" fill="url(#paint2_linear_9_2)"/>
<path opacity="0.15" d="M357.322 53.3885L356.254 54.4563L355.301 55.4097L350.305 60.4053L327.157 83.4768L243.833 166.61L237.884 172.559L205.241 205.088L203.258 207.071L94.3452 315.755H0L110.362 234.719V227.359L177.326 178.203L179.271 176.754V184.152L255.807 127.942H245.74L253.824 121.993L337.759 60.4053H347.788L357.322 53.3885Z" fill="black"/>
<path d="M387.296 31.4229L358.237 60.4053L357.246 61.3586L357.207 61.3968L245.778 172.559L205.241 212.982L102.277 315.755H0L110.362 234.719L179.271 184.152L255.807 127.942L347.788 60.4053L357.322 53.3885L387.296 31.4229Z" fill="url(#paint3_linear_9_2)"/>
<path d="M420.549 0.038208L391.185 27.9147L393.817 76.0025C395.228 83.5913 394.961 89.3877 394.846 91.1038C403.427 60.7105 411.969 30.3934 420.511 0.038208H420.549Z" fill="url(#paint4_linear_9_2)"/>
<path d="M420.549 0L328.797 23.3384C330.361 23.2621 334.975 23.224 341.191 24.2537L391.185 27.9527L420.549 0.0381347C420.549 0.0381347 420.549 0.0381347 420.549 0Z" fill="url(#paint5_linear_9_2)"/>
<path d="M335.966 172.559V240.058H205.241V221.334L254.129 172.559H335.966Z" fill="#FC1A02"/>
<path d="M110.362 315.984L179.271 247.227V338.254H110.362V315.984Z" fill="#FC1A02"/>
<path d="M358.58 60.4053L357.284 61.3587L357.208 61.435L327.196 83.4768L266.638 127.942H223.202C216.834 127.942 211.228 129.01 206.156 131.069C201.046 133.128 196.47 136.217 192.199 140.45L192.123 140.564L192.008 140.641C188.004 144.454 185.068 148.458 182.97 152.768C180.949 157.039 179.691 161.615 179.309 166.725V192.084L110.362 242.689V170.5C110.362 155.437 113.108 141.289 118.637 128.209C124.167 115.129 132.48 103.269 143.348 92.6291C154.179 82.0277 166.42 73.905 179.767 68.4899C193.152 63.1129 207.681 60.4435 223.126 60.4435H358.542L358.58 60.4053Z" fill="#FC1A02"/>
<path opacity="0.15" d="M357.322 53.3885L356.254 54.4563L355.301 55.4097L350.305 60.4053L327.157 83.4768L243.833 166.61L237.884 172.559L205.241 205.088L203.258 207.071L94.3452 315.755H0L110.362 234.719V227.359L177.326 178.203L179.271 176.754V184.152L255.807 127.942H245.74L253.824 121.993L337.759 60.4053H347.788L357.322 53.3885Z" fill="black"/>
<path d="M102.277 315.755H0L110.362 234.719L179.271 184.152L255.807 127.942L347.788 60.4053L357.322 53.3885L387.296 31.4229L358.237 60.4053L357.246 61.3586L357.207 61.3968" fill="#001140"/>
<path d="M420.549 0.038208L391.185 27.9147L393.817 76.0025C395.228 83.5913 394.961 89.3877 394.846 91.1038C403.427 60.7105 411.969 30.3934 420.511 0.038208H420.549Z" fill="#001140"/>
<path d="M420.549 0L328.797 23.3384C330.361 23.2621 334.975 23.224 341.191 24.2537L391.185 27.9527L420.549 0.0381347C420.549 0.0381347 420.549 0.0381347 420.549 0Z" fill="#001140"/>
<defs>
<linearGradient id="paint0_linear_9_2" x1="425.43" y1="84.8116" x2="134.463" y2="355.949" gradientUnits="userSpaceOnUse">
<stop stop-color="#FF612E"/>
<stop offset="0.27" stop-color="#FE503C"/>
<stop offset="1" stop-color="#FC2761"/>
</linearGradient>
<linearGradient id="paint1_linear_9_2" x1="414.753" y1="73.333" x2="123.747" y2="344.47" gradientUnits="userSpaceOnUse">
<stop stop-color="#FF612E"/>
<stop offset="0.27" stop-color="#FE503C"/>
<stop offset="1" stop-color="#FC2761"/>
</linearGradient>
<linearGradient id="paint2_linear_9_2" x1="340.199" y1="-6.67356" x2="49.1938" y2="264.464" gradientUnits="userSpaceOnUse">
<stop stop-color="#FF612E"/>
<stop offset="0.27" stop-color="#FE503C"/>
<stop offset="1" stop-color="#FC2761"/>
</linearGradient>
<linearGradient id="paint3_linear_9_2" x1="366.665" y1="21.6986" x2="75.6592" y2="292.874" gradientUnits="userSpaceOnUse">
<stop stop-color="#FF612E"/>
<stop offset="0.27" stop-color="#FE503C"/>
<stop offset="1" stop-color="#FC2761"/>
</linearGradient>
<linearGradient id="paint4_linear_9_2" x1="436.261" y1="18.9911" x2="385.618" y2="66.1637" gradientUnits="userSpaceOnUse">
<stop stop-color="#FC2761"/>
<stop offset="0.73" stop-color="#FE503C"/>
<stop offset="1" stop-color="#FF612E"/>
</linearGradient>
<linearGradient id="paint5_linear_9_2" x1="404.113" y1="-15.4827" x2="353.47" y2="31.6899" gradientUnits="userSpaceOnUse">
<stop stop-color="#FF612E"/>
<stop offset="0.27" stop-color="#FE503C"/>
<stop offset="1" stop-color="#FC2761"/>
</linearGradient>
</defs>
</svg>
