<svg width="377" height="303" viewBox="0 0 377 303" fill="none" xmlns="http://www.w3.org/2000/svg">
<path d="M300.95 154.574V215.038H183.849V198.265L227.643 154.574H300.95Z" fill="url(#paint0_linear_2005_2)"/>
<path d="M98.8591 283.051L160.586 221.46V303H98.8591V283.051Z" fill="url(#paint1_linear_2005_2)"/>
<path d="M321.207 54.1096L320.046 54.9636L319.977 55.0319L293.093 74.7764L238.847 114.607H199.939C194.234 114.607 189.213 115.564 184.669 117.408C180.092 119.253 175.993 122.02 172.167 125.812L172.098 125.914L171.996 125.982C168.409 129.398 165.779 132.985 163.9 136.845C162.089 140.671 160.962 144.77 160.621 149.348V172.064L98.8591 217.395V152.73C98.8591 139.237 101.319 126.563 106.272 114.846C111.225 103.129 118.672 92.5055 128.408 82.9748C138.109 73.4783 149.074 66.2022 161.03 61.3515C173.021 56.5349 186.036 54.1437 199.871 54.1437H321.173L321.207 54.1096Z" fill="url(#paint2_linear_2005_2)"/>
<path opacity="0.15" d="M320.08 47.8241L319.124 48.7806L318.27 49.6346L313.795 54.1096L293.059 74.7764L218.42 149.245L213.091 154.574L183.85 183.713L182.073 185.489L84.5121 282.846H0L98.8593 210.255V203.662L158.844 159.63L160.587 158.332V164.959L229.146 114.607H220.128L227.37 109.278L302.556 54.1096H311.54L320.08 47.8241Z" fill="black"/>
<path d="M346.93 28.1479L320.9 54.1096L320.012 54.9636L319.978 54.9978L220.162 154.574L183.85 190.784L91.6174 282.846H0L98.8593 210.255L160.587 164.959L229.146 114.607L311.54 54.1096L320.08 47.8242L346.93 28.1479Z" fill="url(#paint3_linear_2005_2)"/>
<path d="M376.718 0.0341187L350.414 25.0051L352.771 68.081C354.035 74.8789 353.796 80.0712 353.694 81.6084C361.38 54.3828 369.032 27.2256 376.683 0.0341187H376.718Z" fill="url(#paint4_linear_2005_2)"/>
<path d="M376.717 0L294.528 20.906C295.929 20.8377 300.062 20.8035 305.63 21.7258L350.414 25.0393L376.717 0.0341601C376.717 0.0341601 376.717 0.0341601 376.717 0Z" fill="url(#paint5_linear_2005_2)"/>
<path d="M300.95 154.574V215.038H183.849V198.265L227.643 154.574H300.95Z" fill="#FC1A02"/>
<path d="M98.8591 283.051L160.586 221.46V303H98.8591V283.051Z" fill="#FC1A02"/>
<path d="M321.207 54.1096L320.046 54.9636L319.977 55.0319L293.093 74.7764L238.847 114.607H199.939C194.234 114.607 189.213 115.564 184.669 117.408C180.092 119.253 175.993 122.02 172.167 125.812L172.098 125.914L171.996 125.982C168.409 129.398 165.779 132.985 163.9 136.845C162.089 140.671 160.962 144.77 160.621 149.348V172.064L98.8591 217.395V152.73C98.8591 139.237 101.319 126.563 106.272 114.846C111.225 103.129 118.672 92.5055 128.408 82.9748C138.109 73.4783 149.074 66.2022 161.03 61.3515C173.021 56.5349 186.036 54.1437 199.871 54.1437H321.173L321.207 54.1096Z" fill="#FC1A02"/>
<path opacity="0.15" d="M320.08 47.8241L319.124 48.7806L318.27 49.6346L313.795 54.1096L293.059 74.7764L218.42 149.245L213.091 154.574L183.85 183.713L182.073 185.489L84.5121 282.846H0L98.8593 210.255V203.662L158.844 159.63L160.587 158.332V164.959L229.146 114.607H220.128L227.37 109.278L302.556 54.1096H311.54L320.08 47.8241Z" fill="black"/>
<path d="M91.6174 282.846H0L98.8593 210.255L160.587 164.959L229.146 114.607L311.54 54.1096L320.08 47.8242L346.93 28.1479L320.9 54.1096L320.012 54.9636L319.978 54.9978" fill="white"/>
<path d="M376.718 0.0341187L350.414 25.0051L352.771 68.081C354.035 74.8789 353.796 80.0712 353.694 81.6084C361.38 54.3828 369.032 27.2256 376.683 0.0341187H376.718Z" fill="white"/>
<path d="M376.717 0L294.528 20.906C295.929 20.8377 300.062 20.8035 305.63 21.7258L350.414 25.0393L376.717 0.0341601C376.717 0.0341601 376.717 0.0341601 376.717 0Z" fill="white"/>
<defs>
<linearGradient id="paint0_linear_2005_2" x1="381.09" y1="75.972" x2="120.448" y2="318.85" gradientUnits="userSpaceOnUse">
<stop stop-color="#FF612E"/>
<stop offset="0.27" stop-color="#FE503C"/>
<stop offset="1" stop-color="#FC2761"/>
</linearGradient>
<linearGradient id="paint1_linear_2005_2" x1="371.525" y1="65.6899" x2="110.849" y2="308.568" gradientUnits="userSpaceOnUse">
<stop stop-color="#FF612E"/>
<stop offset="0.27" stop-color="#FE503C"/>
<stop offset="1" stop-color="#FC2761"/>
</linearGradient>
<linearGradient id="paint2_linear_2005_2" x1="304.742" y1="-5.97805" x2="44.0664" y2="236.9" gradientUnits="userSpaceOnUse">
<stop stop-color="#FF612E"/>
<stop offset="0.27" stop-color="#FE503C"/>
<stop offset="1" stop-color="#FC2761"/>
</linearGradient>
<linearGradient id="paint3_linear_2005_2" x1="328.449" y1="19.4371" x2="67.7736" y2="262.35" gradientUnits="userSpaceOnUse">
<stop stop-color="#FF612E"/>
<stop offset="0.27" stop-color="#FE503C"/>
<stop offset="1" stop-color="#FC2761"/>
</linearGradient>
<linearGradient id="paint4_linear_2005_2" x1="390.792" y1="17.0117" x2="345.427" y2="59.2677" gradientUnits="userSpaceOnUse">
<stop stop-color="#FC2761"/>
<stop offset="0.73" stop-color="#FE503C"/>
<stop offset="1" stop-color="#FF612E"/>
</linearGradient>
<linearGradient id="paint5_linear_2005_2" x1="361.994" y1="-13.869" x2="316.63" y2="28.387" gradientUnits="userSpaceOnUse">
<stop stop-color="#FF612E"/>
<stop offset="0.27" stop-color="#FE503C"/>
<stop offset="1" stop-color="#FC2761"/>
</linearGradient>
</defs>
</svg>
